<?xml version="1.0" standalone="no"?>
<!DOCTYPE svg PUBLIC "-//W3C//DTD SVG 20010904//EN"
 "http://www.w3.org/TR/2001/REC-SVG-20010904/DTD/svg10.dtd">
<svg version="1.0" xmlns="http://www.w3.org/2000/svg"
 width="860.000000pt" height="860.000000pt" viewBox="0 0 860.000000 860.000000"
 preserveAspectRatio="xMidYMid meet">
<metadata>
Created by potrace 1.11, written by Peter Selinger 2001-2013
</metadata>
<g transform="translate(0.000000,860.000000) scale(0.100000,-0.100000)"
fill="#000000" stroke="none">
<path d="M1835 7930 c-623 -64 -1156 -399 -1481 -931 -212 -348 -325 -749
-341 -1209 -26 -796 225 -1381 874 -2035 176 -178 389 -359 697 -593 686 -520
1091 -868 1551 -1328 121 -121 275 -283 343 -361 133 -152 165 -175 245 -175
74 0 109 25 229 161 151 170 505 528 713 720 384 353 644 569 1139 944 359
272 514 403 747 636 334 335 531 605 681 936 77 171 82 223 31 303 -36 56 -87
82 -157 82 -100 0 -146 -40 -206 -179 -169 -395 -467 -766 -935 -1162 -50 -42
-236 -188 -415 -324 -569 -435 -879 -696 -1282 -1077 l-147 -139 -51 38 c-27
20 -50 40 -50 43 0 3 14 11 31 19 41 18 87 83 94 135 14 89 -3 118 -161 271
-348 338 -509 598 -581 935 -28 134 -26 486 5 637 56 280 160 488 330 665 219
227 499 339 817 325 249 -11 461 -122 710 -372 148 -147 232 -263 306 -419 53
-114 93 -158 160 -176 46 -13 87 -6 141 21 45 23 63 48 121 171 93 194 261
413 405 530 137 109 228 161 375 210 81 26 110 31 237 35 383 14 681 -125 900
-418 260 -349 343 -933 195 -1376 -80 -240 -210 -436 -455 -687 -143 -147
-282 -266 -525 -450 -488 -371 -787 -628 -1138 -978 l-208 -208 -187 188
c-244 244 -545 515 -767 689 -82 65 -178 65 -251 1 -48 -42 -67 -83 -67 -144
0 -79 28 -117 177 -240 300 -249 600 -532 837 -790 84 -92 163 -168 182 -178
45 -21 109 -21 154 0 19 10 98 87 182 178 369 401 737 728 1296 1156 301 230
405 319 575 489 388 389 585 759 639 1201 16 124 13 401 -4 537 -40 300 -141
576 -298 808 -82 120 -257 295 -374 373 -151 100 -335 177 -507 212 l-59 12 7
82 c3 44 6 95 6 113 0 21 11 45 35 73 58 69 62 100 36 256 -42 257 -106 464
-211 681 -204 423 -503 726 -902 912 -236 110 -471 165 -760 178 -440 18 -858
-124 -1220 -415 -178 -144 -378 -369 -508 -570 -36 -56 -68 -101 -71 -102 -3
0 -26 30 -51 68 -335 504 -905 912 -1393 997 -113 19 -323 27 -440 15z"/>
</g>
</svg>
